<?xml version="1.0" standalone="no"?>
<!DOCTYPE svg PUBLIC "-//W3C//DTD SVG 20010904//EN"
 "http://www.w3.org/TR/2001/REC-SVG-20010904/DTD/svg10.dtd">
<svg version="1.0" xmlns="http://www.w3.org/2000/svg"
 width="1456.000000pt" height="1456.000000pt" viewBox="0 0 1456.000000 1456.000000"
 preserveAspectRatio="xMidYMid meet">
<metadata>
Created by potrace 1.14, written by Peter Selinger 2001-2017
</metadata>
<g transform="translate(0.000000,1456.000000) scale(0.100000,-0.100000)"
fill="#000000" stroke="none">
<path d="M5947 12744 c-1 -1 -69 -5 -152 -8 -277 -13 -583 -52 -825 -107 -25
-6 -52 -12 -62 -14 -199 -41 -657 -191 -847 -276 -24 -11 -67 -29 -95 -40 -51
-21 -386 -186 -461 -229 -104 -58 -138 -78 -240 -140 -415 -252 -814 -556
-1225 -935 -142 -130 -491 -485 -486 -493 3 -5 88 -65 188 -133 101 -68 251
-169 333 -226 83 -56 240 -162 350 -237 228 -154 439 -297 443 -301 2 -1 -10
-24 -26 -51 -75 -129 -182 -356 -269 -568 -81 -200 -202 -590 -220 -711 -2
-16 -8 -46 -13 -65 -5 -19 -12 -51 -15 -70 -3 -19 -7 -46 -10 -60 -14 -76 -33
-224 -42 -326 -15 -174 -8 -698 12 -889 2 -22 6 -62 9 -90 38 -362 110 -705
219 -1035 27 -80 71 -202 86 -235 5 -11 32 -72 60 -136 105 -242 282 -549 423
-734 125 -165 249 -306 398 -455 239 -240 375 -354 630 -530 63 -44 120 -84
127 -90 7 -5 14 -10 17 -10 3 0 43 -24 88 -53 149 -96 553 -317 579 -317 11 0
265 409 257 415 -2 1 -39 19 -83 40 -199 96 -457 257 -670 417 -15 11 -94 75
-145 116 -207 169 -504 478 -651 677 -24 33 -49 66 -56 73 -25 26 -190 280
-253 387 -57 99 -210 396 -210 409 0 3 -11 29 -24 58 -112 249 -244 698 -281
953 -3 23 -7 50 -9 60 -7 37 -16 109 -31 250 -18 179 -23 508 -10 670 10 128
11 140 13 184 2 39 3 40 254 227 139 104 255 191 258 194 3 3 28 21 55 40 28
19 57 40 65 47 8 7 149 112 312 233 l297 221 173 -123 c95 -67 178 -126 183
-131 6 -4 188 -135 405 -290 217 -155 406 -290 420 -300 14 -10 95 -68 180
-128 l155 -110 17 63 c74 266 233 698 356 968 196 429 461 872 688 1150 34 41
139 164 154 181 462 496 925 781 1450 893 114 24 152 30 285 46 72 8 471 6
515 -3 14 -3 51 -8 82 -12 32 -3 99 -14 151 -24 87 -16 99 -22 192 -86 448
-313 800 -668 1114 -1125 l72 -105 -48 -44 c-192 -174 -435 -430 -618 -650
-11 -13 -25 -29 -30 -35 -25 -27 -160 -201 -237 -306 -171 -232 -386 -562
-500 -770 -20 -36 -53 -94 -73 -130 -59 -103 -228 -453 -284 -590 -71 -173
-122 -278 -144 -297 -17 -16 -19 -15 -43 10 -14 15 -34 27 -44 27 -18 0 -23 8
-22 35 1 17 -89 86 -120 92 -21 4 -34 16 -46 39 -14 31 -17 32 -33 19 -13 -13
-21 -14 -43 -4 -14 7 -26 16 -26 21 0 4 -4 8 -10 8 -5 0 -10 -10 -10 -22 0
-13 -4 -29 -9 -37 -7 -11 -13 -7 -25 18 -9 17 -69 113 -133 214 -158 249 -186
304 -236 469 -56 180 -69 211 -113 265 -37 45 -54 52 -73 29 -10 -11 -7 -19
10 -35 13 -12 26 -21 30 -21 15 0 79 -141 114 -250 21 -63 49 -137 62 -165 20
-40 222 -356 256 -400 31 -40 87 -137 87 -150 0 -3 -11 -5 -24 -5 -16 0 -27 7
-32 22 -6 19 -7 19 -16 5 -5 -10 -20 -17 -34 -17 -18 0 -23 -4 -17 -12 4 -7
13 -38 19 -68 l11 -55 -36 45 c-19 25 -79 90 -131 145 -126 131 -144 155 -300
390 -171 258 -224 323 -323 398 -39 30 -52 35 -68 27 -10 -6 -19 -15 -19 -20
0 -5 29 -28 65 -51 99 -62 155 -131 444 -544 31 -44 117 -141 191 -216 74 -75
143 -151 153 -168 17 -30 17 -31 0 -31 -10 0 -30 7 -45 14 -26 14 -29 13 -52
-14 -34 -41 -42 -85 -21 -116 21 -33 80 -58 120 -50 68 13 67 13 82 -34 16
-51 55 -218 56 -239 0 -7 15 -29 34 -48 18 -20 33 -39 33 -42 0 -4 -20 -17
-45 -29 -37 -18 -46 -19 -52 -7 -5 8 -37 46 -73 86 -36 39 -80 99 -99 133 -40
74 -79 126 -92 126 -28 0 -102 -97 -158 -207 -92 -185 -165 -253 -306 -284
-49 -11 -55 -14 -35 -20 39 -10 79 -2 137 27 93 48 152 110 221 235 71 130
113 185 135 176 8 -3 39 -45 68 -94 47 -78 93 -131 184 -213 l28 -25 -39 -17
c-22 -9 -84 -29 -138 -43 -54 -14 -116 -38 -138 -52 -22 -15 -83 -81 -136
-147 -194 -243 -340 -358 -500 -396 -29 -6 -62 -20 -74 -30 -22 -17 -21 -17
35 -9 101 16 230 76 320 148 23 19 85 86 137 149 193 233 230 257 500 322 150
36 158 39 155 58 -3 19 22 52 40 52 14 0 55 -42 55 -57 0 -5 -11 -15 -25 -21
-48 -22 -50 -82 -4 -82 24 0 24 -12 -1 -35 -23 -21 -42 -74 -42 -120 0 -46 18
-95 63 -176 22 -38 40 -79 41 -91 2 -25 -14 -80 -42 -143 -55 -126 -77 -182
-154 -397 -47 -130 -86 -240 -86 -244 0 -3 -6 -20 -14 -37 -28 -64 -100 -263
-112 -312 -10 -40 -12 -44 -13 -20 -1 31 -29 145 -55 227 -22 71 -94 204 -149
278 -87 116 -255 263 -350 306 -17 8 -39 18 -47 23 -36 22 -114 52 -182 70
-508 136 -1030 -98 -1261 -563 -172 -346 -147 -745 68 -1081 10 -16 41 -57 69
-90 215 -256 523 -397 848 -390 128 3 180 11 285 41 317 92 579 329 702 635
57 142 75 235 76 391 l0 97 22 -27 c12 -15 23 -22 23 -17 22 184 206 764 321
1011 49 106 77 189 84 247 5 38 0 53 -36 115 -32 55 -41 81 -41 117 0 26 3 49
5 52 4 4 29 -27 84 -103 61 -83 169 -343 248 -594 87 -277 136 -395 204 -494
17 -24 35 -56 41 -70 7 -20 17 -26 38 -26 l29 0 -9 58 c-10 71 -17 127 -23
172 -5 38 -14 107 -20 155 -2 17 -7 48 -10 70 l-6 40 41 -45 c106 -116 218
-330 250 -480 23 -105 46 -163 80 -200 12 -14 63 -78 113 -143 49 -65 102
-126 116 -135 17 -12 44 -17 84 -15 33 0 55 -2 51 -6 -5 -5 -54 -44 -109 -88
-213 -170 -421 -306 -676 -443 l-66 -35 53 -110 c29 -60 77 -158 105 -217 29
-60 54 -108 56 -108 7 0 200 104 262 142 34 21 65 38 67 38 4 0 216 139 268
177 161 114 388 296 460 369 18 17 23 15 87 -46 25 -24 200 -183 223 -203 124
-108 406 -385 406 -399 0 -4 19 -17 41 -29 34 -17 46 -19 66 -10 27 12 149 17
181 7 11 -4 27 -24 36 -46 15 -38 38 -56 101 -80 23 -9 27 -6 45 34 12 24 31
48 43 53 13 6 82 10 162 8 l140 -3 -3 -40 c-2 -23 3 -53 12 -70 l16 -31 55 29
c30 16 76 52 101 79 26 28 54 51 64 51 9 0 35 9 58 20 22 11 47 20 54 20 7 1
51 14 97 30 47 16 87 27 89 25 2 -2 0 -18 -6 -34 -13 -38 -7 -76 21 -120 19
-32 22 -33 31 -15 6 10 26 34 44 53 19 19 33 42 33 50 0 9 -2 51 -5 94 -3 42
-1 77 4 77 5 0 11 9 15 19 6 19 31 29 95 37 19 3 39 9 44 14 17 17 10 301 -9
400 -3 14 -7 57 -10 95 -8 101 -10 106 -60 174 l-46 63 16 43 c19 49 16 116
-7 143 -19 22 -35 40 -166 198 l-108 131 -2 57 -1 56 47 1 c217 3 230 4 250
22 11 10 22 30 26 45 8 39 40 72 73 77 43 5 55 13 91 57 22 28 32 51 32 74 0
19 0 36 0 39 0 3 12 37 26 77 27 73 46 106 109 188 42 56 105 183 105 214 0
13 -7 29 -15 36 -9 8 -15 30 -15 60 0 41 6 55 40 96 59 71 66 108 70 347 1 70
7 146 12 170 10 37 20 341 21 580 l0 89 -37 34 c-43 40 -74 102 -82 171 -4 26
-15 62 -25 79 -32 54 -144 148 -264 221 -32 20 -199 112 -209 116 -5 2 1 48
13 103 38 167 80 288 132 374 37 62 55 134 60 250 2 26 10 53 20 65 61 69 103
264 79 370 -19 85 -21 102 -21 153 1 35 12 81 36 142 45 115 48 194 10 230
-38 36 -41 76 -10 168 19 59 26 100 26 158 1 44 1 140 1 214 0 74 1 169 2 210
2 41 -1 89 -6 105 -5 17 -11 63 -15 103 -4 59 -12 84 -38 128 -18 29 -42 80
-54 111 -67 178 -120 217 -289 214 -124 -2 -198 -23 -375 -110 -309 -150 -619
-336 -882 -531 -49 -36 -95 -69 -101 -73 -7 -4 -31 23 -59 66 -260 393 -681
832 -1090 1139 -180 135 -418 286 -600 381 -38 20 -82 47 -97 59 -14 13 -36
30 -48 38 -12 8 -44 31 -71 50 -125 90 -131 94 -334 217 -194 118 -398 221
-690 348 -142 62 -494 183 -665 229 -131 35 -336 81 -450 100 -52 9 -106 18
-120 21 -35 6 -174 23 -240 30 -30 3 -71 7 -90 10 -19 2 -116 7 -215 10 -248
10 -266 10 -268 9z m2813 -6574 c21 -72 8 -72 -21 0 -16 41 -29 77 -29 80 1
15 41 -50 50 -80z m235 -599 c3 -10 2 -29 -3 -41 -9 -23 -9 -23 -20 9 -12 33
-9 51 8 51 5 0 11 -8 15 -19z m-1546 -234 c262 -130 453 -368 529 -659 7 -26
7 -38 -1 -40 -10 -3 -751 -2 -767 1 -5 1 -6 783 -1 787 6 7 173 -55 240 -89z
m-659 -306 c0 -302 -3 -390 -12 -393 -11 -3 -713 -2 -757 1 -19 1 -7 57 36
165 57 143 139 265 248 369 77 74 217 164 305 197 101 37 137 49 158 49 l22 1
0 -389z m-82 -811 l82 0 0 -385 c0 -418 3 -397 -55 -375 -14 5 -36 12 -50 14
-37 7 -187 80 -252 122 -77 51 -219 193 -272 272 -65 96 -151 293 -151 345 0
10 53 12 335 10 154 -1 317 -2 363 -3z m1168 0 l112 0 -19 -61 c-70 -225 -208
-419 -391 -549 -96 -68 -304 -160 -362 -160 -9 0 -12 91 -12 383 l0 382 46 5
c25 3 151 4 280 3 129 -1 285 -2 346 -3z"/>
<path d="M8720 3689 c-55 -25 -52 -21 -56 -61 -3 -34 -16 -223 -17 -245 0 -17
-2 -17 -31 10 -13 12 -35 31 -48 42 -13 11 -51 44 -86 73 l-63 54 -61 -25 -60
-24 21 -20 c12 -11 89 -74 170 -139 l149 -118 43 -108 c24 -59 46 -108 50
-108 17 0 99 42 99 51 0 6 -19 53 -41 107 -40 93 -41 99 -35 177 3 44 8 91 10
105 3 14 7 57 11 95 3 39 8 89 10 113 6 49 1 50 -65 21z"/>
<path d="M5368 3597 c-51 -26 -83 -70 -92 -128 -11 -67 23 -122 115 -186 141
-100 156 -117 150 -170 -2 -20 -53 -41 -91 -38 -91 6 -160 64 -160 134 0 27
-5 32 -52 49 -61 23 -66 19 -67 -56 -2 -83 55 -156 156 -204 146 -69 283 -32
329 88 35 91 1 149 -146 251 -105 72 -131 102 -114 131 22 34 56 43 115 28 67
-18 113 -64 107 -107 -4 -27 -1 -30 54 -48 l58 -20 1 22 c7 100 -12 151 -74
203 -79 66 -212 90 -289 51z"/>
<path d="M5750 3501 c0 -5 23 -100 51 -212 l50 -204 -16 -58 c-9 -32 -18 -67
-20 -78 -2 -12 -7 -29 -10 -39 -19 -60 -20 -59 76 -76 28 -5 26 -10 74 176 2
8 4 21 4 27 1 7 40 54 89 105 48 51 116 123 151 160 35 38 62 70 60 71 -2 2
-30 11 -61 20 l-58 15 -39 -41 c-21 -23 -64 -71 -96 -107 -61 -69 -72 -78 -72
-58 0 26 -55 263 -62 271 -4 4 -20 10 -34 13 -15 2 -38 9 -52 14 -32 12 -35
12 -35 1z"/>
<path d="M8088 3476 c-48 -15 -119 -65 -150 -107 -102 -137 -70 -359 66 -463
114 -87 278 -82 371 10 43 43 55 46 55 12 0 -21 6 -22 65 -7 50 13 49 1 14
134 -10 39 -20 81 -22 95 -16 84 -30 121 -44 115 -8 -3 -65 -17 -127 -32 -61
-14 -115 -29 -119 -33 -4 -4 -3 -28 4 -55 13 -51 14 -51 99 -29 14 3 37 8 52
11 27 5 28 4 21 -28 -12 -66 -78 -132 -144 -144 -122 -23 -242 101 -233 242 8
136 136 221 246 163 24 -12 46 -27 49 -33 8 -11 129 12 129 25 0 19 -72 86
-117 108 -55 27 -154 35 -215 16z"/>
<path d="M6269 3344 c0 -16 -2 -36 -3 -44 -2 -8 -7 -50 -11 -93 -3 -43 -8 -88
-10 -100 -2 -12 -7 -53 -10 -92 -4 -38 -8 -81 -10 -95 -1 -14 -6 -58 -10 -97
l-7 -73 39 -1 c21 0 46 -2 55 -4 24 -4 25 -2 33 88 3 43 8 88 10 100 2 12 6
49 10 82 8 89 17 149 21 154 2 2 8 -9 14 -25 10 -26 83 -194 133 -304 11 -25
28 -64 38 -87 17 -41 21 -43 61 -45 24 0 55 -2 71 -3 15 -1 27 1 28 4 6 71 11
111 19 186 5 50 12 113 15 140 3 28 8 75 11 105 3 30 9 81 13 113 4 32 5 60 1
62 -4 3 -30 7 -58 11 -59 7 -58 9 -67 -111 -4 -44 -8 -87 -11 -95 -2 -8 -6
-46 -9 -85 -6 -68 -14 -127 -18 -132 -1 -1 -47 101 -102 228 -55 126 -102 229
-105 229 -3 0 -35 3 -72 6 l-68 7 -1 -29z"/>
<path d="M7580 3359 c-19 -5 -57 -11 -84 -14 -27 -4 -56 -8 -65 -10 -9 -1 -40
-6 -69 -10 l-53 -7 5 -42 c4 -22 8 -52 10 -66 3 -14 7 -47 11 -75 3 -27 8 -59
10 -70 3 -11 7 -38 10 -60 3 -22 10 -67 15 -100 5 -33 11 -82 15 -110 11 -91
14 -97 46 -91 16 4 42 8 57 11 29 6 29 6 20 58 -4 29 -11 72 -13 97 -3 25 -8
55 -10 68 -3 17 1 22 18 23 12 0 31 2 42 5 11 2 49 6 85 10 83 8 93 -2 110
-113 7 -46 18 -87 25 -93 6 -5 27 -8 46 -6 19 2 42 4 53 5 14 1 17 6 12 24 -4
12 -13 57 -21 99 -16 86 -36 132 -65 148 -19 10 -19 12 11 53 27 37 30 48 27
92 -6 65 -30 115 -71 142 -38 26 -128 42 -177 32z m111 -130 c15 -15 19 -30
17 -61 -3 -48 -32 -75 -88 -83 -19 -2 -61 -9 -93 -13 -32 -5 -59 -6 -62 -3 -3
6 -19 122 -20 146 0 12 108 32 178 34 35 1 52 -4 68 -20z"/>
<path d="M6839 3318 c-7 -20 -3 -611 4 -615 11 -6 413 -11 437 -5 12 2 15 15
14 50 -1 26 -2 50 -3 53 0 3 -67 6 -148 6 -82 1 -158 1 -169 2 -20 1 -21 6
-20 79 l1 77 143 0 142 -1 0 56 0 55 -132 -1 c-73 0 -138 1 -144 3 -7 3 -11
28 -10 66 l2 62 165 1 164 1 3 54 3 55 -226 2 c-124 1 -225 1 -226 0z"/>
<path d="M9060 3068 c-241 -113 -720 -278 -901 -311 -13 -3 -42 -10 -64 -15
-80 -22 -390 -77 -485 -86 -36 -4 -78 -9 -95 -11 -112 -17 -347 -29 -555 -28
-160 0 -419 10 -459 18 -9 1 -45 6 -81 9 -111 12 -152 17 -355 51 -18 3 -93
17 -105 20 -8 2 -83 17 -100 20 -8 2 -44 11 -80 20 -36 9 -75 19 -87 21 -135
25 -651 208 -793 281 -13 7 -28 9 -31 5 -8 -8 -41 -69 -129 -238 -34 -66 -70
-132 -80 -149 -9 -16 -49 -91 -88 -166 -70 -134 -71 -136 -49 -147 478 -234
1132 -427 1652 -488 33 -3 68 -8 77 -10 9 -1 48 -6 85 -9 37 -4 84 -8 103 -11
198 -23 730 -22 965 1 150 15 221 22 270 29 109 16 132 19 150 22 11 3 36 7
55 10 19 3 76 14 125 25 50 11 101 22 115 25 111 21 452 120 625 181 305 107
683 264 698 291 3 4 -8 34 -23 67 -15 33 -58 128 -95 210 -37 83 -91 202 -120
265 -28 63 -54 120 -56 127 -3 7 -34 -3 -89 -29z"/>
</g>
</svg>
